# xmcd
#
# Track frame offsets: 
#        150
#        15670
#        41521
#        61990
#        78645
#        96463
#        114160
#        134414
#        152959
#        170104
#        189746
#        216183
#        235696
#        256627
#        272535
#        293502
#        313112
#        331448
#
# Disc length: 4648 seconds
#
# Revision: 0
# Processed by: cddbd v1.5.2PL0 Copyright (c) Steve Scherf et al.
# Submitted via: ExactAudioCopy v0.95a4
#
DISCID=00122612
DTITLE=Various Artist - Beautiful. Pure. Heart
DYEAR=2006
DGENRE=Pop
TTITLE0=James Blunt - You're Beautiful
TTITLE1=Celine Dion - The Power of Love
TTITLE2=Whitney Houston - I Will Always Love You
TTITLE3=Enya - Only Time
TTITLE4=Daniel Powter - Bad Day
TTITLE5=Josh Groban - To Where You Are
TTITLE6=LeAnn Rimes - How Do I Live
TTITLE7=Air Supply - Goodbye
TTITLE8=Michael Bublè
TTITLE9=I Swear - All 4 One
TTITLE10=Karyn White - Superwoman
TTITLE11=Ronan Keating - When You Say Nothing At All
TTITLE12=M2M - Pretty Boy
TTITLE13=Sixpence None The Richer - Kiss Me
TTITLE14=Simple Plan - Perfect
TTITLE15=The Corrs - What Can I Do
TTITLE16=Elton John - Your Song
TTITLE17=Chicago - You're The Inspiration
EXTD=
EXTT0=
EXTT1=
EXTT2=
EXTT3=
EXTT4=
EXTT5=
EXTT6=
EXTT7=
EXTT8=
EXTT9=
EXTT10=
EXTT11=
EXTT12=
EXTT13=
EXTT14=
EXTT15=
EXTT16=
EXTT17=
PLAYORDER=
